<?xml version="1.0" encoding="UTF-8"?>
<svg version="1.1" viewBox="0 0 1600 496" width="1280" height="1280" xmlns="http://www.w3.org/2000/svg">
<path transform="translate(0)" d="m0 0h1600v496h-1600v-496z" fill="#000002"/>
<path transform="translate(1171 169)" d="m0 0c0.714-0.0019 1.43-0.0038 2.16-0.00575 2.36-0.0037 4.72 7e-3 7.08 0.0182 1.65 0.00119 3.3 0.00164 4.95 0.00139 3.46 0.00156 6.92 0.00984 10.4 0.0233 4.41 0.0169 8.82 0.0208 13.2 0.0201 3.41 2.74e-4 6.82 0.00579 10.2 0.013 1.62 0.00316 3.25 0.00515 4.87 0.00589 25.1 0.0241 25.1 0.0241 29.9 3.98 1.37 1.38 2.72 2.78 4.06 4.19 1.04 1.01 2.08 2.02 3.12 3.03 1.11 1.07 2.21 2.15 3.31 3.22 0.533 0.519 1.07 1.04 1.61 1.57 4.08 4.07 5.07 6.63 5.09 12.3 0.00895 1.59 0.00895 1.59 0.0181 3.21 0.00179 1.74 0.00179 1.74 0.00362 3.52 0.00485 1.22 0.0097 2.45 0.0147 3.71 0.036 11.3 0.0162 22.6-0.022 33.9-0.0275 8.34-0.0258 16.7 0.0149 25 0.0261 5.87 0.0177 11.7-0.0156 17.6-0.0189 3.5-0.0228 7.01 0.0108 10.5 0.0368 3.92 0.00225 7.83-0.0379 11.7 0.0214 1.15 0.0429 2.3 0.065 3.49-0.131 6.33-1 9.65-5.52 14.2-1.53 1.34-3.09 2.65-4.67 3.92-1.29 1.12-2.59 2.25-3.88 3.38-0.534 0.441-1.07 0.882-1.62 1.34-1.56 1.22-1.56 1.22-2.59 2.84-3.07 2.31-6.47 1.9-10.2 1.91-0.841 0.0134-1.68 0.0268-2.55 0.0406-2.78 0.0404-5.57 0.0594-8.35 0.0773-1.93 0.0219-3.87 0.0449-5.8 0.0688-4.06 0.0469-8.11 0.0835-12.2 0.113-5.2 0.0378-10.4 0.0978-15.6 0.165-4 0.0498-7.99 0.0895-12 0.126-1.92 0.0184-3.83 0.0395-5.75 0.0636-2.68 0.0318-5.36 0.0502-8.04 0.0649-1.19 0.0177-1.19 0.0177-2.4 0.0358-4.13 0.00747-7.45-0.213-11.1-2.22-1.4-2.79-1.13-5.08-1.13-8.21-0.00227-0.643-0.00453-1.29-0.00687-1.95-0.00635-2.17-0.00551-4.33-0.00469-6.5-0.00299-1.55-0.00639-3.1-0.0102-4.65-0.00885-4.21-0.0112-8.43-0.0118-12.6-9.48e-4 -3.52-0.00463-7.03-0.00817-10.5-0.00815-8.3-0.0106-16.6-0.00987-24.9 6.01e-4 -8.56-0.00995-17.1-0.0257-25.7-0.0131-7.35-0.0184-14.7-0.0178-22 2.55e-4 -4.39-0.0026-8.78-0.0132-13.2-0.00968-4.13-0.00976-8.26-0.00248-12.4 0.00105-1.52-0.00132-3.03-0.00736-4.55-0.00771-2.07-0.00308-4.14 0.00463-6.21-5.45e-4 -1.16-0.00109-2.32-0.00165-3.51 0.252-3.12 0.851-5.29 2.25-8.08 3.38-2.61 7.03-2.25 11.2-2.24z" fill="#FCFDFF"/>
<path transform="translate(1042 170)" d="m0 0c1.31-0.0354 2.61-0.0709 3.96-0.107 3.82 0.0565 6.91 0.231 10.5 1.42 3.03 3.32 4.53 6.79 6 11 0.434 1.09 0.434 1.09 0.877 2.2 0.476 1.2 0.924 2.42 1.35 3.64 3.06 8.53 6.42 17.8 11.3 25.5 1.66 2.88 2.6 5.65 3.57 8.82 1.24 4.34 1.24 4.34 3.94 7.81 0.676 1.48 1.29 2.98 1.88 4.5 0.349 0.898 0.699 1.8 1.06 2.72 0.352 0.917 0.704 1.83 1.07 2.78 2.1 5.4 4.29 10.8 6.62 16.1 0.405 0.919 0.81 1.84 1.23 2.79 0.96 2.3 0.96 2.3 3.15 3.15 0.00809-1.02 0.0162-2.05 0.0245-3.1 0.0776-9.67 0.165-19.3 0.263-29 0.0499-4.97 0.0962-9.94 0.134-14.9 0.037-4.8 0.0833-9.6 0.136-14.4 0.0185-1.83 0.0336-3.66 0.0453-5.48 0.017-2.57 0.046-5.13 0.0778-7.7 0.00216-0.751 0.00432-1.5 0.00655-2.28 0.0744-4.72 0.7-8.69 2.31-13.1 4.07-2.8 9.1-2.26 13.9-2.19 0.777 6.45e-4 1.55 0.00129 2.36 0.00195 4.67 0.0353 9.18 0.246 13.8 1.19 1.38 2.76 1.13 4.98 1.13 8.07 0.00423 1.94 0.00423 1.94 0.00854 3.93-0.00194 1.44-0.00399 2.89-0.00613 4.33 0.00135 1.51 0.00313 3.03 0.00531 4.54 0.00457 4.12 0.00279 8.24-3.79e-4 12.4-0.00253 4.31-1.85e-4 8.63 0.00139 12.9 0.00182 7.25-5.83e-4 14.5-0.00534 21.8-0.00543 8.37-0.00369 16.7 0.00183 25.1 0.00455 7.19 0.00517 14.4 0.00256 21.6-0.00156 4.29-0.00177 8.59 0.00154 12.9 0.0029 4.04 8.64e-4 8.09-0.00489 12.1-0.00132 1.48-9.52e-4 2.96 0.00126 4.44 0.00958 7.06-0.00979 13.9-1.13 20.9-4.79 0.0494-9.57 0.0857-14.4 0.11-1.63 0.0101-3.26 0.0237-4.89 0.041-2.34 0.0243-4.68 0.0356-7.02 0.0444-1.09 0.0155-1.09 0.0155-2.21 0.0313-3.74 8.29e-4 -5.33-0.0978-8.52-2.23-0.957-1.71-0.957-1.71-1.81-3.81-1.64-3.92-3.38-7.78-5.19-11.6-1.77-3.82-3.47-7.64-5-11.6-2.39-6.13-5.22-12-8-18-2.83-6.1-5.51-12.2-7.97-18.5-1.46-3.6-3.1-7.11-4.73-10.6-1.85-4.13-3.52-8.34-5.18-12.6-0.888-2.48-0.888-2.48-3.11-3.34-0.0103 1.05-0.0206 2.1-0.0312 3.18-0.0979 9.9-0.201 19.8-0.308 29.7-0.0551 5.09-0.109 10.2-0.158 15.3-0.0478 4.91-0.1 9.83-0.156 14.7-0.0203 1.87-0.0391 3.75-0.0561 5.62-0.0242 2.63-0.0543 5.26-0.0856 7.88-0.00576 0.77-0.0115 1.54-0.0174 2.33-0.0609 4.51-0.456 8.81-1.19 13.3-4.24 0.0247-8.47 0.0429-12.7 0.0549-1.44 0.00503-2.88 0.0119-4.32 0.0205-2.07 0.0121-4.14 0.0178-6.21 0.0222-1.25 0.00524-2.49 0.0105-3.78 0.0159-2.98-0.114-2.98-0.114-4.98-1.11-0.0467-20.4-0.082-40.7-0.104-61.1-0.0103-9.46-0.0244-18.9-0.0473-28.4-0.0199-8.24-0.0328-16.5-0.0373-24.7-0.00261-4.36-0.00873-8.73-0.0233-13.1-0.0136-4.11-0.0178-8.22-0.0148-12.3-5.5e-4 -1.51-0.00452-3.01-0.0122-4.52-0.00998-2.06-0.00755-4.12-0.0021-6.18-0.00184-1.15-0.00369-2.3-0.00559-3.49 0.262-3.4 0.893-6.06 2.25-9.19 6.33-3.17 13.6-2.39 20.5-2.31z" fill="#FBFCFE"/>
<path transform="translate(515 169)" d="m0 0c0.97-0.00336 1.94-0.00672 2.94-0.0102 3.19-0.00947 6.39-0.0115 9.58-0.0125 2.22-0.00321 4.45-0.00658 6.67-0.0101 4.66-0.00598 9.31-0.00784 14-0.00725 5.97 1.02e-4 11.9-0.0136 17.9-0.0308 4.59-0.0111 9.18-0.0131 13.8-0.0126 2.2-0.00118 4.4-0.00561 6.6-0.0133 3.07-0.00977 6.15-0.00693 9.22-8.95e-4 0.911-0.00562 1.82-0.0112 2.76-0.017 0.838 0.00419 1.68 0.00839 2.54 0.0127 0.726-5.45e-4 1.45-0.00109 2.2-0.00165 2.04 0.249 2.04 0.249 6.04 2.25v28c-38.1 0.495-38.1 0.495-77 1-1.81 3.61-2.25 4.66-2.28 8.39-0.0112 0.872-0.0223 1.74-0.0338 2.64-0.00216 0.949-0.00432 1.9-0.00655 2.87-0.0151 1.51-0.0151 1.51-0.0304 3.05-0.0309 3.32-0.0479 6.64-0.0648 9.97-0.0187 2.3-0.0383 4.61-0.0587 6.91-0.0514 6.06-0.091 12.1-0.128 18.2-0.04 6.19-0.0911 12.4-0.141 18.6-0.0968 12.1-0.181 24.3-0.258 36.4 3.2 0.708 6.15 1.12 9.42 1.11 0.84-7.55e-5 1.68-1.51e-4 2.55-2.29e-4 1.34-0.00774 1.34-0.00774 2.71-0.0156 1.39-0.00212 1.39-0.00212 2.8-0.00429 2.94-0.00558 5.89-0.0181 8.83-0.0309 2-0.00502 4-0.00958 6-0.0137 4.9-0.0102 9.79-0.0297 14.7-0.0488v-39c-7.15-0.289-7.15-0.289-14.3-0.568-0.888-0.0381-1.78-0.0762-2.69-0.115-0.911-0.0367-1.82-0.0733-2.76-0.111-2.25-0.205-2.25-0.205-4.25-1.21-0.0578-4.12-0.0935-8.25-0.125-12.4-0.0168-1.18-0.0335-2.35-0.0508-3.56-0.00967-1.68-0.00967-1.68-0.0195-3.4-0.0157-1.56-0.0157-1.56-0.0317-3.14 0.227-2.52 0.227-2.52 2.23-4.52 2.28-0.247 2.28-0.247 5.17-0.243 1.08-0.00308 2.16-0.00615 3.27-0.00932 1.17 0.00719 2.34 0.0144 3.54 0.0218 1.19 4.58e-4 2.39 9.16e-4 3.62 0.00139 2.53 0.00303 5.05 0.0109 7.58 0.0233 3.88 0.0183 7.76 0.0205 11.6 0.0203 2.45 0.00492 4.9 0.0107 7.35 0.0176 1.75 0.00167 1.75 0.00167 3.54 0.00337 1.07 0.00638 2.15 0.0128 3.26 0.0193 0.951 0.00381 1.9 0.00762 2.88 0.0116 2.16 0.134 2.16 0.134 3.16 1.13 0.0953 2.98 0.126 5.94 0.114 8.93 1.46e-4 0.936 2.92e-4 1.87 4.43e-4 2.84-7e-4 3.11-0.00849 6.22-0.0163 9.33-0.00186 2.15-0.00329 4.3-0.00429 6.45-0.00383 5.67-0.0137 11.3-0.0247 17-0.0102 5.78-0.0148 11.6-0.0198 17.4-0.0107 11.4-0.0278 22.7-0.0488 34.1-4.4 0.0247-8.79 0.0428-13.2 0.0549-1.5 0.00504-2.99 0.0119-4.49 0.0205-2.15 0.0121-4.29 0.0178-6.44 0.0222-1.29 0.00524-2.59 0.0105-3.92 0.0159-2.96-0.114-2.96-0.114-3.96-1.11-0.234-1.85-0.413-3.7-0.562-5.56-0.126-1.52-0.126-1.52-0.254-3.07-0.0606-0.782-0.121-1.56-0.184-2.37-0.99-0.33-1.98-0.66-3-1-0.268 0.639-0.536 1.28-0.812 1.94-1.19 2.06-1.19 2.06-4.19 3.06-1.05 1.85-1.05 1.85-2 4-1.17 2.11-1.17 2.11-3 4-2.82 0.488-2.82 0.488-6.29 0.47-1.3 0.00293-2.6 0.00585-3.93 0.00887-1.42-0.0171-2.83-0.0348-4.25-0.0531-1.45-0.00492-2.9-0.00822-4.35-0.00996-3.04-0.00764-6.08-0.0282-9.11-0.0591-3.9-0.0396-7.8-0.0576-11.7-0.0673-3.71-0.00995-7.43-0.0299-11.1-0.0511-0.713-0.0034-1.43-0.00679-2.16-0.0103-2.01-0.0115-4.01-0.0311-6.02-0.051-1.14-0.00984-2.29-0.0197-3.46-0.0298-2.57-0.147-2.57-0.147-3.57-1.15-0.101-2.11-0.131-4.22-0.134-6.33-0.00227-0.669-0.00453-1.34-0.00687-2.03-0.00637-2.26-0.00551-4.52-0.00469-6.78-0.00299-1.61-0.00639-3.23-0.0102-4.84-0.00886-4.39-0.0112-8.78-0.0118-13.2-9.47e-4 -3.66-0.00462-7.32-0.00817-11-0.00815-8.63-0.0106-17.3-0.00987-25.9 6.01e-4 -8.92-0.00995-17.8-0.0257-26.8-0.0131-7.65-0.0184-15.3-0.0178-22.9 2.56e-4 -4.57-0.00263-9.14-0.0132-13.7-0.00965-4.3-0.00978-8.6-0.00248-12.9 0.00105-1.58-0.00134-3.16-0.00736-4.74-0.00766-2.15-0.00311-4.3 0.00463-6.45-5.45e-4 -1.21-0.00109-2.41-0.00165-3.66 0.249-2.8 0.249-2.8 2.25-4.8 5.21-1.28 10.5-1.15 15.8-1.15z" fill="#FCFDFF"/>
<path transform="translate(666,171)" d="m0 0c1.38 2.76 1.11 4.98 1.1 8.07-0.0033 1.27-0.00661 2.55-0.01 3.86-0.00412 0.683-0.00824 1.37-0.0125 2.07-0.0127 2.13-0.0193 4.27-0.0241 6.4-0.0134 5.3-0.0376 10.6-0.0614 15.9-0.0197 4.48-0.0354 8.96-0.0456 13.4-0.0065 2.11-0.019 4.21-0.0317 6.32-0.0033 1.27-0.00661 2.55-0.01 3.86-0.00524 1.13-0.0105 2.25-0.0159 3.41-0.0688 2.63-0.0688 2.63 1.11 4.66 15.2 0.33 30.4 0.66 46 1-0.0348-4.56-0.0696-9.12-0.105-13.8-0.0153-2.89-0.0298-5.79-0.041-8.68-0.0179-4.59-0.0391-9.18-0.0798-13.8-0.0326-3.7-0.0505-7.4-0.0583-11.1-0.00553-1.41-0.0163-2.82-0.0326-4.23-0.0218-1.98-0.023-3.96-0.0234-5.94-0.00999-1.69-0.00999-1.69-0.0202-3.41 0.408-3.43 1.27-5.31 3.36-8.03 8.83-2.57 20-1.53 29 0 1.4 2.8 1.13 5.11 1.13 8.25 0.00234 0.972 0.00234 0.972 0.00473 1.96 4e-3 2.18 8.23e-4 4.36-0.00232 6.55 0.00135 1.56 0.00313 3.12 0.00531 4.68 0.00457 4.25 0.00279 8.49-3.79e-4 12.7-0.00253 4.44-1.85e-4 8.88 0.00139 13.3 0.00182 7.46-5.83e-4 14.9-0.00534 22.4-0.00544 8.62-0.00368 17.2 0.00183 25.9 0.00454 7.4 0.00518 14.8 0.00256 22.2-0.00156 4.42-0.00176 8.84 0.00154 13.3 0.00289 4.16 8.87e-4 8.32-0.00489 12.5-0.00132 1.53-9.41e-4 3.05 0.00126 4.58 0.00273 2.08-6.91e-4 4.17-0.00568 6.25-5.66e-4 1.75-5.66e-4 1.75-0.00114 3.53-0.107 2.51-0.388 4.58-1.13 6.97-4.25 0.0247-8.51 0.0428-12.8 0.0549-1.45 0.00504-2.9 0.0119-4.34 0.0205-2.08 0.0121-4.16 0.0178-6.23 0.0222-1.25 0.00524-2.5 0.0105-3.79 0.0159-2.87-0.114-2.87-0.114-3.87-1.11-0.16-1.83-0.252-3.66-0.316-5.5-0.0421-1.18-0.0841-2.36-0.127-3.58-0.0392-1.29-0.0783-2.59-0.119-3.92-0.0208-0.656-0.0417-1.31-0.0632-1.99-0.347-11.1-0.481-22.1-0.499-33.2-0.00259-0.723-0.00518-1.45-0.00784-2.19-0.00583-2.05-0.0043-4.11 3.05e-5 -6.16 0.00113-1.18 0.00226-2.35 0.00342-3.56 0.129-2.89 0.129-2.89 1.13-5.89-6.53-0.0253-13.1-0.0428-19.6-0.0549-2.22-0.00504-4.45-0.0119-6.67-0.0205-3.19-0.0121-6.38-0.0178-9.57-0.0222-1-0.00516-2-0.0103-3.03-0.0156-1.38-1.13e-4 -1.38-1.13e-4 -2.79-2.29e-4 -0.815-0.00222-1.63-0.00444-2.47-0.00673-1.88-0.085-1.88-0.085-2.87 1.12-0.118 1.88-0.167 3.75-0.189 5.63-0.0251 1.81-0.0251 1.81-0.0507 3.65-0.0136 1.31-0.0272 2.63-0.0411 3.98-0.018 1.35-0.0366 2.71-0.0558 4.06-0.0598 4.31-0.112 8.61-0.163 12.9-0.0593 4.98-0.122 9.95-0.192 14.9-0.0265 1.99-0.0473 3.98-0.068 5.98-0.0251 1.83-0.0251 1.83-0.0507 3.69-0.0188 1.6-0.0188 1.6-0.038 3.24-0.142 2.74-0.536 5.24-1.15 7.91-4.24 0.0247-8.47 0.0429-12.7 0.0549-1.44 0.00503-2.88 0.0119-4.32 0.0205-2.07 0.0121-4.14 0.0178-6.21 0.0222-1.25 0.00524-2.49 0.0105-3.78 0.0159-2.98-0.114-2.98-0.114-4.98-1.11-0.0467-20.5-0.082-41-0.104-61.5-0.0103-9.53-0.0244-19.1-0.0473-28.6-0.0199-8.3-0.0328-16.6-0.0373-24.9-0.00261-4.4-0.00874-8.79-0.0233-13.2-0.0136-4.14-0.0178-8.28-0.0148-12.4-5.5e-4 -1.52-0.00453-3.04-0.0122-4.56-0.00996-2.07-0.00756-4.15-0.0021-6.22-0.00184-1.16-0.00369-2.32-0.00559-3.52 0.25-3.14 0.773-5.31 2.25-8.08 8.57-4.18 20.8-2.58 30-1z" fill="#FCFDFF"/>
<path transform="translate(316 170)" d="m0 0c0.778-0.00387 1.56-0.00773 2.36-0.0117 13.8 0.0231 13.8 0.0231 16 2.14 0.0887 1.94 0.107 3.89 0.0977 5.83-0.0033 1.25-0.00661 2.5-0.01 3.78-0.00412 0.671-0.00824 1.34-0.0125 2.03-0.0127 2.1-0.0193 4.19-0.0241 6.29-0.0134 5.21-0.0375 10.4-0.0614 15.6-0.0197 4.4-0.0354 8.8-0.0456 13.2-0.00648 2.07-0.019 4.13-0.0317 6.2-0.0033 1.26-0.00661 2.52-0.01 3.81-0.00524 1.11-0.0105 2.21-0.0159 3.36 0.0248 3.09 0.0248 3.09 1.11 6.87 15.2 0.33 30.4 0.66 46 1-0.0838-4.08-0.168-8.16-0.254-12.4-0.0639-3.28-0.127-6.55-0.189-9.83-0.0655-3.45-0.133-6.89-0.206-10.3-0.0834-3.96-0.157-7.93-0.231-11.9-0.027-1.22-0.0541-2.44-0.0819-3.7-0.111-6.38-0.0956-12.6 0.961-18.9 3.01-3.01 5.95-3.13 10.1-3.13 0.768-0.00129 1.54-0.00258 2.33-0.00391 1.19 0.0058 1.19 0.0058 2.4 0.0117 0.782-0.00387 1.56-0.00773 2.37-0.0117 12.7 0.0212 12.7 0.0212 14.8 2.14 0.0969 2.11 0.122 4.23 0.12 6.35 8.54e-4 0.671 0.00171 1.34 0.00259 2.03 0.00166 2.26-0.00387 4.53-0.00932 6.79-2.82e-4 1.62-1.24e-4 3.23 4.43e-4 4.85 2.88e-4 4.4-0.00561 8.8-0.0126 13.2-0.00623 4.59-0.00684 9.19-0.00803 13.8-0.00311 8.71-0.0113 17.4-0.0213 26.1-0.0112 9.91-0.0167 19.8-0.0217 29.7-0.0105 20.4-0.0281 40.8-0.0503 61.2-4.4 0.0247-8.79 0.0428-13.2 0.0549-1.5 0.00504-2.99 0.0119-4.49 0.0205-2.15 0.0121-4.29 0.0178-6.44 0.0222-1.29 0.00524-2.59 0.0105-3.92 0.0159-2.96-0.114-2.96-0.114-3.96-1.11-0.124-2.05-0.178-4.11-0.205-6.17-0.0099-0.644-0.0198-1.29-0.03-1.95-0.0317-2.14-0.0564-4.27-0.0811-6.41-0.0206-1.48-0.0416-2.96-0.063-4.43-0.0553-3.9-0.105-7.8-0.153-11.7-0.059-4.67-0.125-9.35-0.19-14-0.0981-7.11-0.187-14.2-0.277-21.3h-44c-1.8 4.5-2.26 6.61-2.32 11.3-0.0199 1.24-0.0397 2.48-0.0602 3.76-0.0119 1.34-0.0235 2.69-0.035 4.03-0.0187 1.38-0.0383 2.77-0.0587 4.15-0.0512 3.63-0.0909 7.26-0.128 10.9-0.0401 3.71-0.0912 7.41-0.141 11.1-0.0966 7.26-0.181 14.5-0.258 21.8-4.24 0.0247-8.47 0.0429-12.7 0.0549-1.44 0.00503-2.88 0.0119-4.32 0.0205-2.07 0.0121-4.14 0.0178-6.21 0.0222-1.25 0.00524-2.49 0.0105-3.78 0.0159-2.98-0.114-2.98-0.114-4.98-1.11-0.07-20.9-0.123-41.9-0.155-62.8-0.0155-9.72-0.0366-19.4-0.0709-29.2-0.0299-8.47-0.0492-16.9-0.0559-25.4-0.00392-4.49-0.0132-8.98-0.0349-13.5-0.0203-4.22-0.0267-8.44-0.0221-12.7-8.27e-4 -1.55-0.00682-3.1-0.0183-4.65-0.0149-2.11-0.0114-4.23-0.00315-6.34-0.00277-1.18-0.00553-2.37-0.00838-3.59 0.369-2.88 0.369-2.88 1.7-4.73 4.08-2.84 8.6-2.31 13.4-2.28z" fill="#FCFDFF"/>
<path transform="translate(919 169)" d="m0 0c2.11-0.00322 4.21-0.00658 6.32-0.0101 4.39-0.00596 8.78-0.00784 13.2-0.00725 5.63 1.02e-4 11.3-0.0136 16.9-0.0308 4.34-0.0111 8.67-0.0131 13-0.0126 2.08-0.00118 4.15-0.00561 6.23-0.0133 2.89-0.00976 5.78-0.00694 8.67-8.95e-4 0.859-0.00562 1.72-0.0112 2.6-0.017 5.93 0.0316 5.93 0.0316 9.27 2.26v28c-39.1 0.495-39.1 0.495-79 1v39l50 1c1.88 3.76 2.25 4.93 2.23 8.88-0.00193 0.921-0.00387 1.84-0.00586 2.79-0.0122 0.955-0.0245 1.91-0.0371 2.89-9.67e-4 1.44-9.67e-4 1.44-0.00195 2.9-0.0448 7.11-0.0448 7.11-1.19 10.5-0.936 0.0155-0.936 0.0155-1.89 0.0312-6.47 0.108-12.9 0.222-19.4 0.341-2.42 0.0434-4.84 0.0851-7.25 0.125-3.47 0.0575-6.94 0.121-10.4 0.186-1.09 0.0167-2.18 0.0334-3.3 0.0506-1 0.0199-2 0.0399-3.03 0.0604-0.886 0.0155-1.77 0.0311-2.68 0.0471-2.01-0.062-2.01-0.062-3.02 1.16-0.0886 2.74-0.115 5.45-0.0977 8.19 0.00212 1.23 0.00212 1.23 0.00429 2.48 0.00562 2.63 0.0182 5.26 0.0309 7.89 0.00501 1.78 0.00958 3.56 0.0137 5.33 0.011 4.37 0.0283 8.74 0.0488 13.1 10.1 0.796 20.1 1.13 30.2 1.06 1.39-0.00442 2.78-0.00823 4.17-0.0115 4.33-0.0112 8.67-0.0306 13-0.051 5.08-0.0237 10.2-0.0439 15.2-0.0559 2.02-0.00648 4.04-0.019 6.06-0.0317 1.82-0.00495 1.82-0.00495 3.68-0.01 1.07-0.00524 2.14-0.0105 3.25-0.0159 2.41 0.114 2.41 0.114 3.41 1.11 0.0877 2.07 0.107 4.15 0.0977 6.22-0.00483 1.89-0.00483 1.89-0.00977 3.82-0.00836 1.34-0.0168 2.68-0.0254 4.02-0.00501 1.34-0.00958 2.69-0.0137 4.03-0.0118 3.3-0.0283 6.6-0.0488 9.9-14.5 0.0233-28.9 0.0409-43.4 0.0518-6.71 0.00516-13.4 0.0122-20.1 0.0236-6.47 0.0108-12.9 0.0168-19.4 0.0194-2.47 0.00185-4.95 0.00548-7.42 0.0109-3.45 0.00721-6.91 0.00826-10.4 0.0078-1.03 0.0036-2.07 0.00719-3.13 0.0109-0.935-0.00137-1.87-0.00275-2.83-0.00417-0.818 9.22e-4 -1.64 0.00184-2.48 0.00279-1.86-0.123-1.86-0.123-2.86-1.12-0.101-2.11-0.131-4.22-0.134-6.33-0.00227-0.669-0.00453-1.34-0.00687-2.03-0.00637-2.26-0.00551-4.52-0.00469-6.78-0.00299-1.61-0.00639-3.23-0.0102-4.84-0.00886-4.39-0.0112-8.78-0.0118-13.2-9.47e-4 -3.66-0.00462-7.32-0.00817-11-0.00815-8.63-0.0106-17.3-0.00987-25.9 6.01e-4 -8.92-0.00995-17.8-0.0257-26.8-0.0131-7.65-0.0184-15.3-0.0178-22.9 2.56e-4 -4.57-0.00263-9.14-0.0132-13.7-0.00965-4.3-0.00978-8.6-0.00248-12.9 0.00105-1.58-0.00134-3.16-0.00736-4.74-0.00766-2.15-0.00311-4.3 0.00463-6.45-5.45e-4 -1.21-0.00109-2.41-0.00165-3.66 0.249-2.8 0.249-2.8 2.25-4.8 10.9-2.16 22.8-1.16 33.8-1.17z" fill="#FCFDFF"/>
<path transform="translate(451 170)" d="m0 0c1.11 0.0438 2.22 0.0877 3.37 0.133 1.15 0.0516 2.31 0.103 3.5 0.156 1.17 0.0438 2.33 0.0877 3.53 0.133 8.65 0.363 8.65 0.363 9.78 1.49 0.0969 2.11 0.122 4.23 0.12 6.35 8.54e-4 0.671 0.00171 1.34 0.00259 2.03 0.00166 2.26-0.00387 4.53-0.00932 6.79-2.82e-4 1.62-1.24e-4 3.23 4.43e-4 4.85 2.88e-4 4.4-0.00561 8.8-0.0126 13.2-0.00623 4.59-0.00684 9.19-0.00803 13.8-0.00311 8.71-0.0113 17.4-0.0213 26.1-0.0112 9.91-0.0167 19.8-0.0217 29.7-0.0105 20.4-0.0281 40.8-0.0503 61.2-4.38 0.0494-8.76 0.0857-13.1 0.11-1.49 0.0101-2.98 0.0237-4.47 0.041-2.14 0.0242-4.28 0.0356-6.42 0.0444-1.29 0.0105-2.58 0.0209-3.9 0.0317-3.07-0.227-3.07-0.227-5.07-2.23-0.254-2.7-0.254-2.7-0.261-6.21-0.00383-0.643-0.00765-1.29-0.0116-1.95-0.0104-2.17-0.00633-4.33-0.00237-6.5-0.00435-1.55-0.00953-3.1-0.0155-4.65-0.0134-4.21-0.014-8.43-0.0114-12.6 0.00107-3.52-0.00381-7.03-0.00861-10.5-0.0111-8.3-0.0115-16.6-0.00549-24.9 0.00604-8.56-0.00626-17.1-0.0276-25.7-0.0176-7.35-0.0236-14.7-0.0204-22 0.00181-4.39-8.36e-4 -8.78-0.0147-13.2-0.0126-4.13-0.0106-8.26 0.00241-12.4 0.00237-1.52-3.77e-4 -3.03-0.00862-4.55-0.0104-2.07-0.00238-4.14 0.0103-6.21-1.68e-4 -1.16-3.35e-4 -2.32-5.08e-4 -3.51 0.418-3.43 1.33-5.32 3.37-8.08 3.15-1.41 6.42-1.05 9.82-0.914z" fill="#FCFDFF"/>
<path transform="translate(1195 199)" d="m0 0c0.774 0.00143 1.55 0.00285 2.35 0.00432 1.32-0.00461 1.32-0.00461 2.66-0.00932 1.42 0.0108 1.42 0.0108 2.88 0.0218 0.971 4.58e-4 1.94 9.16e-4 2.94 0.00139 2.06 0.00302 4.11 0.0109 6.17 0.0233 3.16 0.0183 6.32 0.0205 9.47 0.0203 1.99 0.00492 3.99 0.0107 5.98 0.0176 1.43 0.00167 1.43 0.00167 2.88 0.00337 0.874 0.00638 1.75 0.0128 2.65 0.0193 1.16 0.00572 1.16 0.00572 2.34 0.0116 1.78 0.134 1.78 0.134 2.78 1.13 0.0955 1.4 0.122 2.81 0.12 4.22 0.00137 0.91 0.00275 1.82 0.00417 2.76-0.00539 1.51-0.00539 1.51-0.0109 3.05 1.46e-4 1.05 2.92e-4 2.11 4.43e-4 3.19-7e-4 3.5-0.00849 7-0.0163 10.5-0.00186 2.42-0.00329 4.84-0.00429 7.26-0.00383 6.38-0.0137 12.8-0.0247 19.2-0.0102 6.51-0.0148 13-0.0198 19.5-0.0107 12.8-0.0276 25.6-0.0488 38.3-3.03 0.164-6.06 0.327-9.1 0.49-0.852 0.0463-1.7 0.0926-2.58 0.14-6.38 0.34-12.7 0.553-19.1 0.558-0.913 0.0122-1.83 0.0245-2.77 0.0371-0.888 0.00193-1.78 0.00387-2.69 0.00586-0.769 0.00411-1.54 0.00822-2.33 0.0125-2.99-0.302-5.57-1.27-8.4-2.24-0.0467-13.8-0.0818-27.6-0.104-41.4-0.0105-6.4-0.0246-12.8-0.0473-19.2-0.0217-6.17-0.0337-12.3-0.0389-18.5-0.00371-2.36-0.0109-4.72-0.0217-7.08-0.0144-3.29-0.0165-6.59-0.0156-9.88-0.00719-0.984-0.0144-1.97-0.0218-2.98 0.00275-0.895 0.0055-1.79 0.00833-2.71-0.00184-0.78-0.00369-1.56-0.00559-2.36 0.357-2.76 1.4-3.79 4.15-4.15z" fill="#000002"/>
<path transform="translate(787 242)" d="m0 0c1.01-0.00526 1.01-0.00526 2.04-0.0106 2.21-0.00875 4.41-0.00299 6.62 0.00378 1.54-0.00135 3.09-0.00329 4.63-0.0058 3.23-0.00294 6.46 0.00132 9.69 0.0107 4.13 0.0114 8.25 0.00484 12.4-0.00714 3.19-0.00725 6.37-0.00492 9.56 2.56e-4 1.52 0.00133 3.04-2.81e-4 4.56-0.00496 2.13-0.00512 4.26 0.00272 6.4 0.0138 1.21 0.00159 2.42 0.00318 3.67 0.00482 3.46 0.254 3.46 0.254 10.5 2.25v20c-7.57 0.132-15.1 0.263-22.7 0.391-3.52 0.0596-7.04 0.12-10.6 0.182-16.6 0.291-33.1 0.506-49.7 0.427-3.15-5.89-2.51-12.1-1.38-18.6 1.38-2.44 1.38-2.44 4.02-3.57 3.59-0.925 6.65-1.12 10.3-1.12z" fill="#FCFDFF"/>
</svg>
